<svg width="700" height="700" viewBox="0 0 700 700" fill="none" xmlns="http://www.w3.org/2000/svg">
    <circle opacity="0.03" cx="350" cy="350" r="343" fill="#0336FF"/>
    <circle opacity="0.05" cx="349.5" cy="349.5" r="224.5" fill="#0336FF"/>
    <path d="M576 546H546V454L561 424L576 454V546Z" fill="#8EBAC5"/>
    <path d="M154 546H124V454L139 424L154 454V546Z" fill="#A8D3D8"/>
    <path d="M552.164 126.66C522.621 97.4062 475.223 97.6327 445.965 127.176L419.105 156.805L455.871 252.629L515.965 272.141L605.52 179.207L552.164 126.66ZM504.648 199L483.422 177.789L504.633 156.578L525.859 177.789L504.648 199Z"
          fill="#463B85"/>
    <path d="M576 304V454H396L366 415.301L351 426.699L314.699 454H124V304H276L351 328.898L366 334L516 304H576Z"
          fill="#CB75F6"/>
    <path d="M576 304V454H396L366 415.301L351 426.699V328.898L366 334L516 304H576Z" fill="#B760EA"/>
    <path d="M139 516C114.098 516 94 536.098 94 561C94 585.902 114.098 606 139 606C163.902 606 184 585.902 184 561C184 536.098 163.902 516 139 516Z"
          fill="#54469D"/>
    <path d="M184 561C184 585.902 163.902 606 139 606V516C163.902 516 184 536.098 184 561Z" fill="#463B85"/>
    <path d="M139 546C130.598 546 124 552.598 124 561C124 569.402 130.598 576 139 576C147.402 576 154 569.402 154 561C154 552.598 147.402 546 139 546Z"
          fill="#DEECF1"/>
    <path d="M154 561C154 569.402 147.402 576 139 576V546C147.402 546 154 552.598 154 561Z" fill="#C6E2E7"/>
    <path d="M515.965 272.141L516.262 333.637L456.262 333.926L456.551 393.926L396.551 394.215L396.844 454.215L315.543 454.605L276.656 416.094L276.102 301.195L398.211 177.906L419.105 156.805L515.965 272.141Z"
          fill="#DEECF1"/>
    <path d="M515.965 272.141L516.262 333.637L456.262 333.926L456.551 393.926L396.551 394.215L396.844 454.215L351.844 454.434L350.738 225.836L398.211 177.906L419.105 156.805L515.965 272.141Z"
          fill="#C6E2E7"/>
    <path d="M561 516C536.098 516 516 536.098 516 561C516 585.902 536.098 606 561 606C585.902 606 606 585.902 606 561C606 536.098 585.902 516 561 516Z"
          fill="#54469D"/>
    <path d="M606 561C606 585.902 585.902 606 561 606V516C585.902 516 606 536.098 606 561Z" fill="#463B85"/>
    <path d="M561 546C552.598 546 546 552.598 546 561C546 569.402 552.598 576 561 576C569.402 576 576 569.402 576 561C576 552.598 569.402 546 561 546Z"
          fill="#DEECF1"/>
    <path d="M576 561C576 569.402 569.402 576 561 576V546C569.402 546 576 552.598 576 561Z" fill="#C6E2E7"/>
    <path d="M215 184V214H185V244H155V214H125V184H155V154H185V184H215Z" fill="#A8EBFA"/>
    <path d="M215 184V214H185V244H170V154H185V184H215Z" fill="#76E2F8"/>
    <path d="M366 124V154H336V184H306V154H276V124H306V94H336V124H366Z" fill="#A8EBFA"/>
    <path d="M366 124V154H336V184H321V94H336V124H366Z" fill="#76E2F8"/>
</svg>
