<svg width="700" height="700" viewBox="0 0 700 700" fill="none" xmlns="http://www.w3.org/2000/svg">
    <circle opacity="0.03" cx="350" cy="350" r="343" fill="#0336FF"/>
    <circle opacity="0.05" cx="349.5" cy="349.5" r="224.5" fill="#0336FF"/>
    <path d="M574.698 260.023C574.698 284.926 554.597 305.031 529.69 305.031H439.378L439.98 351.636C444.179 457.554 488.288 524.765 493.386 537.964C504.788 560.468 497.89 587.476 478.085 599.476C455.284 612.976 426.179 604.874 414.476 581.171L364.667 481.558L349.667 421.55L334.664 481.558L284.859 581.171C273.457 603.976 242.851 612.378 221.246 599.476C201.445 587.476 194.543 560.468 205.945 537.964C210.633 525.667 255.152 456.999 259.355 351.636L259.953 305.031H169.641C144.734 305.031 124.633 284.926 124.633 260.023C124.633 235.121 144.734 215.02 169.641 215.02H334.664L349.667 245.023L364.667 215.02H529.694C554.597 215.02 574.698 235.121 574.698 260.023Z"
          fill="#F89580"/>
    <path d="M574.699 260.023C574.699 284.926 554.597 305.031 529.691 305.031H439.379L439.98 351.636C444.179 457.554 488.289 524.765 493.386 537.964C504.789 560.468 497.89 587.476 478.086 599.476C455.285 612.976 426.179 604.874 414.476 581.171L364.668 481.558L349.668 421.55V245.023L364.668 215.02H529.695C554.597 215.02 574.699 235.121 574.699 260.023Z"
          fill="#EC806B"/>
    <path d="M304.66 275.027H394.672V305.031H304.66V275.027Z" fill="#FFCEBF"/>
    <path d="M409.676 155.008C409.676 171.512 403.074 186.516 391.973 197.316C381.172 208.418 366.168 215.02 349.668 215.02C316.664 215.02 289.656 188.012 289.656 155.008C289.656 138.508 296.258 122.504 307.359 111.703C318.164 100.602 333.164 94 349.668 94C366.168 94 381.172 100.602 391.973 111.703C403.074 122.504 409.676 138.508 409.676 155.008Z"
          fill="#F89580"/>
    <path d="M391.973 197.316C381.172 208.418 366.168 215.02 349.668 215.02V94C366.168 94 381.172 100.602 391.973 111.703C403.074 122.504 409.676 138.508 409.676 155.008C409.676 171.512 403.074 186.516 391.973 197.316Z"
          fill="#EC806B"/>
    <path d="M304.66 366.039H394.672V396.047H304.66V366.039Z" fill="#FFCEBF"/>
    <path d="M484.688 170.012H514.691V275.027H484.688V170.012Z" fill="#A8D3D8"/>
    <path d="M499.688 185.016C474.871 185.016 454.684 164.824 454.684 140.008C454.684 115.188 474.871 94 499.688 94C524.508 94 544.695 115.188 544.695 140.008C544.695 164.824 524.508 185.016 499.688 185.016Z"
          fill="#A24BDB"/>
    <path d="M184.641 170.012H214.645V275.027H184.641V170.012Z" fill="#C6E2E7"/>
    <path d="M199.645 185.016C174.824 185.016 154.637 164.824 154.637 140.008C154.637 115.188 174.824 94 199.645 94C224.461 94 244.652 115.188 244.652 140.008C244.652 164.824 224.461 185.016 199.645 185.016Z"
          fill="#B760EA"/>
    <path d="M224.871 547.504L149.625 473.254L170.836 452.039L246.086 526.289L224.871 547.504Z" fill="#C6E2E7"/>
    <path d="M107.18 473.254C89.5664 455.609 89.6446 427.145 107.195 409.598C124.16 392.648 153.813 392.59 170.836 409.598C188.402 427.164 188.457 455.637 170.836 473.254C153.203 490.891 124.73 490.805 107.18 473.254Z"
          fill="#B760EA"/>
    <path d="M529.211 452.035L550.422 473.25L476.176 547.5L454.961 526.285L529.211 452.035Z" fill="#A8D3D8"/>
    <path d="M528.867 473.254C511.234 455.621 511.32 427.145 528.867 409.598C545.906 392.59 575.547 392.633 592.523 409.613C610.07 427.16 610.129 455.637 592.512 473.254C574.973 490.82 546.488 490.875 528.867 473.254Z"
          fill="#A24BDB"/>
    <path d="M349.668 275.027H394.672V305.031H349.668V275.027Z" fill="#FFBFAB"/>
    <path d="M349.668 366.039H394.672V396.047H349.668V366.039Z" fill="#FFBFAB"/>
    <path d="M364.668 215.02V481.559L349.668 451.555L334.664 481.559V215.02H364.668Z" fill="#FFCEBF"/>
    <path d="M364.668 215.02V481.559L349.668 451.555V215.02H364.668Z" fill="#FFBFAB"/>
</svg>
