<svg width="700" height="700" viewBox="0 0 700 700" fill="none" xmlns="http://www.w3.org/2000/svg">
    <circle opacity="0.03" cx="350" cy="350" r="343" fill="#0336FF"/>
    <circle opacity="0.05" cx="349.5" cy="349.5" r="224.5" fill="#0336FF"/>
    <g clip-path="url(#clip0)">
        <path d="M597.25 145.176L401.59 340.836L359.164 298.41L554.824 102.75C566.488 91.082 585.582 91.082 597.25 102.75C608.914 114.418 608.918 133.512 597.25 145.176Z"
              fill="#F89580"/>
        <path d="M597.25 145.176L401.59 340.836L380.379 319.621L597.25 102.75C608.918 114.418 608.918 133.512 597.25 145.176Z"
              fill="#EC806B"/>
        <path d="M325.012 565.906L284.918 606L242.492 563.574L253.102 531.754L221.281 542.359L200.066 521.149L210.676 489.328L178.855 499.934L157.641 478.723L168.246 446.902L136.426 457.508L94 415.082L134.094 374.988C185.641 323.442 255.855 294.801 327.344 309.016L378.258 321.742L383.984 323.227L390.984 372.652C405.199 444.145 376.559 514.359 325.012 565.906Z"
              fill="#FFE470"/>
        <path d="M325.012 565.906L284.918 606L242.492 563.574L253.102 531.754L221.281 542.359L200.066 521.148L210.676 489.328L378.258 321.742L383.984 323.227L390.988 372.656C405.199 444.145 376.559 514.359 325.012 565.906Z"
              fill="#FDBF00"/>
        <path d="M136.434 457.5L200.066 393.867L221.273 415.078L157.641 478.711L136.434 457.5Z" fill="#FFD400"/>
        <path d="M178.852 499.934L242.488 436.293L263.703 457.508L200.062 521.145L178.852 499.934Z" fill="#FFD400"/>
        <path d="M221.289 542.359L284.922 478.727L306.133 499.938L242.5 563.57L221.289 542.359Z" fill="#FF9F00"/>
        <path d="M200.062 521.148L189.457 510.543L253.098 446.906L263.703 457.512L200.062 521.148Z" fill="#FF9F00"/>
        <path d="M454.625 351.441L390.984 372.656L327.344 309.016L348.559 245.375L454.625 351.441Z" fill="#FFD400"/>
        <path d="M454.625 351.441L390.984 372.656L359.164 340.836L401.59 298.41L454.625 351.441Z" fill="#FF9F00"/>
        <path d="M545 455V485H515V515H485V485H455V455H485V425H515V455H545Z" fill="#A8EBFA"/>
        <path d="M139 185C114.098 185 94 205.098 94 230C94 254.902 114.098 275 139 275C163.902 275 184 254.902 184 230C184 205.098 163.902 185 139 185ZM139 245C130.598 245 124 238.402 124 230C124 221.598 130.598 215 139 215C147.402 215 154 221.598 154 230C154 238.402 147.402 245 139 245Z"
              fill="#FFE470"/>
        <path d="M545 455V485H515V515H500V425H515V455H545Z" fill="#76E2F8"/>
        <path d="M335 155V185H305V215H275V185H245V155H275V125H305V155H335Z" fill="#A8EBFA"/>
        <path d="M335 155V185H305V215H290V125H305V155H335Z" fill="#76E2F8"/>
        <path d="M184 230C184 254.902 163.902 275 139 275V245C147.402 245 154 238.402 154 230C154 221.598 147.402 215 139 215V185C163.902 185 184 205.098 184 230Z"
              fill="#FFD400"/>
    </g>
    <defs>
        <clipPath id="clip0">
            <rect width="512" height="512" fill="white" transform="translate(94 94)"/>
        </clipPath>
    </defs>
</svg>
