<svg width="700" height="700" viewBox="0 0 700 700" fill="none" xmlns="http://www.w3.org/2000/svg">
    <circle opacity="0.03" cx="350" cy="350" r="343" fill="#0336FF"/>
    <circle opacity="0.05" cx="349.5" cy="349.5" r="224.5" fill="#0336FF"/>
    <g clip-path="url(#clip0)">
        <path d="M376.047 200.117C367.953 185.977 349.645 180.656 335.117 188.953L140 300.457V369.547L364.883 241.047C379.238 232.844 384.25 214.488 376.047 200.117Z"
              fill="#FFA78F"/>
        <path d="M305 380H591V410H305V380Z" fill="#54469D"/>
        <path d="M305 395H591V410H305V395Z" fill="#392E6E"/>
        <path d="M561 478.785L582.211 499.996L561 521.207L539.789 499.996L561 478.785Z" fill="#FDBF00"/>
        <path d="M531 275V305H501V335H471V305H441V275H471V245H501V275H531Z" fill="#A8EBFA"/>
        <path d="M531 275V305H501V335H486V245H501V275H531Z" fill="#76E2F8"/>
        <path d="M501 545V575H471V605H441V575H411V545H441V515H471V545H501Z" fill="#A8EBFA"/>
        <path d="M501 545V575H471V605H456V515H471V545H501Z" fill="#76E2F8"/>
        <path d="M276.641 130.039C262.336 120.516 243.992 124.945 235.039 138.359L140 280.922V389.094L284.961 171.641C294.176 157.805 290.379 139.188 276.641 130.039Z"
              fill="#FFBFAB"/>
        <path d="M315.5 395C335 395 350.301 375.801 344 357.199C327.5 308 281.898 275 230 275C209 275 188 280.699 170 291.199V124C170 107.5 156.5 94 140 94C123.5 94 110 107.5 110 124V606H230V515C281.898 515 327.5 482 344 432.801C350.301 413.898 335 395 315.5 395ZM287.004 413.898C278.602 438.5 255.801 455 230 455C197.004 455 170 428 170 395C170 362 197.004 335 230 335C255.801 335 278.602 351.5 287.004 376.102C290.902 387.5 300.203 395 311.004 395C300.203 395 290.902 402.5 287.004 413.898Z"
              fill="#FFCEBF"/>
        <path d="M344 432.801C327.5 482 281.902 515 230 515V606H110V395H170C170 428 197.004 455 230 455C255.801 455 278.602 438.5 287.004 413.898C290.902 402.5 300.203 395 311.004 395H315.5C335 395 350.301 413.898 344 432.801Z"
              fill="#FFBFAB"/>
    </g>
    <defs>
        <clipPath id="clip0">
            <rect width="512" height="512" fill="white" transform="translate(94 94)"/>
        </clipPath>
    </defs>
</svg>
