<svg width="512" height="512" viewBox="0 0 512 512" fill="none" xmlns="http://www.w3.org/2000/svg">
<path d="M256 41.5C89.1667 41.5 41.5 89.1667 41.5 256C41.5 422.833 89.2858 470.5 256 470.5C422.714 470.5 470.5 422.833 470.5 256C470.5 89.1667 422.714 41.5 256 41.5Z" fill="#0336FF"/>
<mask id="mask0" mask-type="alpha" maskUnits="userSpaceOnUse" x="41" y="41" width="430" height="430">
<path d="M256 41.5C89.1667 41.5 41.5 89.1667 41.5 256C41.5 422.833 89.2858 470.5 256 470.5C422.714 470.5 470.5 422.833 470.5 256C470.5 89.1667 422.714 41.5 256 41.5Z" fill="#0336FF"/>
</mask>
<g mask="url(#mask0)">
<path d="M256 65C89.1667 65 41.5 112.667 41.5 279.5C41.5 446.333 89.2858 494 256 494C422.714 494 470.5 446.333 470.5 279.5C470.5 112.667 422.714 65 256 65Z" fill="#4E72FF"/>
<path d="M256 65C89.1667 65 41.5 112.667 41.5 279.5C41.5 446.333 89.2858 494 256 494C422.714 494 470.5 446.333 470.5 279.5C470.5 112.667 422.714 65 256 65Z" fill="url(#paint0_radial)"/>
</g>
<rect x="170" y="312" width="17" height="17" rx="8.5" fill="#0336FF"/>
<rect x="202" y="312" width="145" height="17" rx="8.5" fill="#0336FF"/>
<rect x="170" y="350" width="17" height="17" rx="8.5" fill="#0336FF"/>
<rect x="202" y="350" width="145" height="17" rx="8.5" fill="#0336FF"/>
<rect x="170" y="387" width="17" height="17" rx="8.5" fill="#0336FF"/>
<rect x="202" y="387" width="145" height="17" rx="8.5" fill="#0336FF"/>
<mask id="mask1" mask-type="alpha" maskUnits="userSpaceOnUse" x="41" y="41" width="430" height="430">
<path d="M256 41.5C89.1667 41.5 41.5 89.1667 41.5 256C41.5 422.833 89.2858 470.5 256 470.5C422.714 470.5 470.5 422.833 470.5 256C470.5 89.1667 422.714 41.5 256 41.5Z" fill="#0336FF"/>
</mask>
<g mask="url(#mask1)">
<path d="M383.275 518.43L559.352 342.352L370 153L349 269.5L301.5 318.5L215.5 326.077H190.922L383.275 518.43Z" fill="url(#paint1_linear)"/>
</g>
<rect x="120" y="190" width="65" height="65" rx="32.5" fill="#0336FF"/>
<rect x="324" y="124" width="67" height="67" rx="33.5" fill="#0336FF"/>
<g filter="url(#filter0_i)">
<path d="M152 227.216C152 283.982 198.115 330 255 330C311.885 330 358 283.982 358 227.216V162" stroke="white" stroke-width="30" stroke-linecap="round"/>
</g>
<defs>
<filter id="filter0_i" x="137" y="147" width="236" height="198" filterUnits="userSpaceOnUse" color-interpolation-filters="sRGB">
<feFlood flood-opacity="0" result="BackgroundImageFix"/>
<feBlend mode="normal" in="SourceGraphic" in2="BackgroundImageFix" result="shape"/>
<feColorMatrix in="SourceAlpha" type="matrix" values="0 0 0 0 0 0 0 0 0 0 0 0 0 0 0 0 0 0 127 0" result="hardAlpha"/>
<feOffset dy="1"/>
<feComposite in2="hardAlpha" operator="arithmetic" k2="-1" k3="1"/>
<feColorMatrix type="matrix" values="0 0 0 0 1 0 0 0 0 1 0 0 0 0 1 0 0 0 0.25 0"/>
<feBlend mode="normal" in2="shape" result="effect1_innerShadow"/>
</filter>
<radialGradient id="paint0_radial" cx="0" cy="0" r="1" gradientUnits="userSpaceOnUse" gradientTransform="translate(41.5 65) rotate(45) scale(606.698)">
<stop stop-color="white" stop-opacity="0.1"/>
<stop offset="1" stop-color="white" stop-opacity="0"/>
</radialGradient>
<linearGradient id="paint1_linear" x1="255.151" y1="323.194" x2="509.482" y2="330.456" gradientUnits="userSpaceOnUse">
<stop stop-opacity="0.1"/>
<stop offset="1" stop-opacity="0"/>
</linearGradient>
</defs>
</svg>
